<svg id="Layer_2" data-name="Layer 2" xmlns="http://www.w3.org/2000/svg" viewBox="0 0 343.17 343.17"><defs><style>.cls-1{fill:#898a86;}.cls-2{fill:#242626;}.cls-3{fill:#fffef1;}.cls-4{fill:#2c2d2d;}.cls-5{fill:#fff;}.cls-6{fill:#e5e4da;}</style></defs><path class="cls-1" d="M256,84.39A171.59,171.59,0,1,0,427.59,256,171.58,171.58,0,0,0,256,84.39Z" transform="translate(-84.42 -84.39)"/><path class="cls-2" d="M256,212.39v-124a167.59,167.59,0,0,0,0,335.17v-124a43.59,43.59,0,1,1,0-87.17Z" transform="translate(-84.42 -84.39)"/><path class="cls-2" d="M256,236.73v38.49a19.25,19.25,0,0,1,0-38.49Z" transform="translate(-84.42 -84.39)"/><path class="cls-3" d="M256,236.73V212.39a43.59,43.59,0,1,0,0,87.17V275.22a19.25,19.25,0,0,1,0-38.49Z" transform="translate(-84.42 -84.39)"/><path class="cls-4" d="M256,212.39v-124a167.59,167.59,0,1,1,0,335.17v-124a43.59,43.59,0,1,0,0-87.17Z" transform="translate(-84.42 -84.39)"/><path class="cls-5" d="M114.77,229.78l-.43,0a2.92,2.92,0,0,1-2.45-3.31c6.88-46.32,58.82-106.53,113-111.81a2.91,2.91,0,0,1,.56,5.79c-23.89,2.33-49,16.13-70.75,38.85-20,20.91-33.85,46.34-37.07,68A2.92,2.92,0,0,1,114.77,229.78Z" transform="translate(-84.42 -84.39)"/><path class="cls-5" d="M293.36,400.75a2.91,2.91,0,0,1-.55-5.77c21.54-4.11,46.38-19,66.44-39.85,21.8-22.66,34.55-48.34,35.88-72.3a2.91,2.91,0,1,1,5.81.32c-3,54.36-61,108.76-107,117.55A3.51,3.51,0,0,1,293.36,400.75Z" transform="translate(-84.42 -84.39)"/><path class="cls-4" d="M256,236.73v38.49a19.25,19.25,0,0,0,0-38.49Z" transform="translate(-84.42 -84.39)"/><path class="cls-6" d="M256,236.73V212.39a43.59,43.59,0,1,1,0,87.17V275.22a19.25,19.25,0,0,0,0-38.49Z" transform="translate(-84.42 -84.39)"/><path class="cls-5" d="M113,239.7c-4.12,0-4.13,6.4,0,6.4S117.07,239.7,113,239.7Z" transform="translate(-84.42 -84.39)"/><path class="cls-5" d="M112,254.27c-4.12,0-4.13,6.4,0,6.4S116.16,254.27,112,254.27Z" transform="translate(-84.42 -84.39)"/><path class="cls-5" d="M112,269.75c-4.12,0-4.13,6.4,0,6.4S116.16,269.75,112,269.75Z" transform="translate(-84.42 -84.39)"/><path class="cls-5" d="M399.13,264.59c-4.12,0-4.13,6.4,0,6.4S403.25,264.59,399.13,264.59Z" transform="translate(-84.42 -84.39)"/><path class="cls-5" d="M399.13,250.7c-4.12,0-4.13,6.4,0,6.4S403.25,250.7,399.13,250.7Z" transform="translate(-84.42 -84.39)"/><path class="cls-5" d="M398.67,237.27c-4.12,0-4.12,6.4,0,6.4S402.8,237.27,398.67,237.27Z" transform="translate(-84.42 -84.39)"/></svg>